<!DOCTYPE svg PUBLIC "-//W3C//DTD SVG 20010904//EN" "http://www.w3.org/TR/2001/REC-SVG-20010904/DTD/svg10.dtd">
<svg version="1.0" xmlns="http://www.w3.org/2000/svg" width="1130px" height="255px" viewBox="0 0 11300 2550" preserveAspectRatio="xMidYMid meet">
<!-- generated by www.vectorizer.io -->
<g id="layer1" fill="#1b2d53" stroke="none">
 <path d="M9646 2325 c-115 -41 -162 -173 -114 -325 21 -68 66 -91 102 -51 16 18 16 23 1 82 -10 37 -15 83 -12 109 13 118 161 122 183 4 4 -21 0 -96 -10 -173 -20 -168 -21 -279 -1 -356 8 -33 49 -127 89 -210 119 -239 162 -399 137 -509 -30 -136 -145 -200 -258 -145 -51 25 -88 75 -144 195 -44 93 -72 113 -109 79 -19 -17 -20 -34 -20 -450 0 -406 1 -433 18 -448 26 -23 58 -21 76 5 14 19 16 66 16 310 0 209 3 288 11 288 7 0 31 -18 55 -39 104 -97 268 -89 372 18 77 80 109 191 91 323 -15 106 -74 275 -145 413 -33 66 -70 145 -80 175 -23 69 -23 178 0 357 14 107 16 142 6 187 -27 133 -143 204 -264 161z"/>
 <path d="M7952 2318 c-7 -7 -12 -24 -12 -38 0 -32 17 -50 45 -50 25 0 55 29 55 52 0 36 -62 62 -88 36z"/>
 <path d="M5556 2178 c-21 -29 -20 -41 2 -61 25 -23 55 -21 78 4 17 19 17 23 3 47 -20 36 -61 41 -83 10z"/>
 <path d="M5285 2140 c-27 -29 -10 -74 28 -78 36 -4 57 13 57 47 0 51 -50 69 -85 31z"/>
 <path d="M5854 2136 c-15 -24 -15 -28 0 -51 20 -31 56 -33 82 -4 17 19 17 23 3 47 -21 38 -62 41 -85 8z"/>
 <path d="M7552 2114 c-31 -22 -26 -63 10 -83 24 -14 28 -14 47 3 27 25 27 61 -1 80 -28 20 -28 20 -56 0z"/>
 <path d="M7877 2112 c-22 -24 -21 -45 1 -65 37 -34 82 -15 82 33 0 49 -51 68 -83 32z"/>
 <path d="M8252 2114 c-31 -22 -26 -63 10 -83 24 -14 28 -14 47 3 27 25 27 61 -1 80 -28 20 -28 20 -56 0z"/>
 <path d="M3632 2058 c-18 -18 -15 -53 6 -71 24 -22 45 -21 65 1 34 37 15 82 -33 82 -14 0 -31 -5 -38 -12z"/>
 <path d="M10934 2049 c-17 -19 -17 -23 -3 -47 21 -38 62 -41 85 -8 15 24 15 28 0 51 -20 31 -56 33 -82 4z"/>
 <path d="M736 2029 c-14 -11 -26 -27 -26 -35 0 -19 36 -54 55 -54 8 0 24 9 35 20 11 11 20 27 20 35 0 16 -34 55 -49 55 -4 0 -20 -9 -35 -21z"/>
 <path d="M5041 1986 c-21 -26 -10 -69 22 -80 23 -8 31 -6 49 12 18 18 20 26 12 49 -7 21 -17 29 -40 31 -18 2 -36 -3 -43 -12z"/>
 <path d="M6102 1988 c-18 -18 -15 -53 6 -71 24 -22 45 -21 65 1 34 37 15 82 -33 82 -14 0 -31 -5 -38 -12z"/>
 <path d="M5556 1948 c-21 -29 -20 -41 2 -61 25 -23 55 -21 78 4 17 19 17 23 3 47 -20 36 -61 41 -83 10z"/>
 <path d="M5345 1920 c-27 -29 -10 -74 28 -78 37 -4 57 13 57 49 0 47 -53 65 -85 29z"/>
 <path d="M5796 1918 c-21 -29 -20 -41 2 -61 27 -24 59 -21 78 8 15 23 15 27 0 50 -21 32 -59 33 -80 3z"/>
 <path d="M11104 1919 c-17 -19 -17 -23 -3 -47 11 -20 23 -27 44 -27 21 0 33 7 44 27 14 24 14 28 -3 47 -11 12 -29 21 -41 21 -12 0 -30 -9 -41 -21z"/>
 <path d="M7821 1904 c-11 -15 -18 -31 -14 -38 14 -25 37 -46 50 -46 18 0 53 36 53 55 0 19 -35 55 -54 55 -8 0 -24 -12 -35 -26z"/>
 <path d="M7475 1896 c-32 -48 32 -100 75 -61 25 23 25 47 2 68 -26 24 -59 21 -77 -7z"/>
 <path d="M8176 1899 c-32 -47 32 -102 74 -64 25 23 26 47 2 68 -25 23 -58 21 -76 -4z"/>
 <path d="M3632 1868 c-7 -7 -12 -24 -12 -38 0 -32 17 -50 45 -50 25 0 55 29 55 52 0 36 -62 62 -88 36z"/>
 <path d="M10567 1862 c-22 -24 -21 -45 1 -65 37 -34 82 -15 82 33 0 49 -51 68 -83 32z"/>
 <path d="M730 1810 c-11 -11 -20 -26 -20 -34 0 -15 45 -56 61 -56 15 0 49 39 49 55 0 8 -9 24 -20 35 -11 11 -27 20 -35 20 -8 0 -24 -9 -35 -20z"/>
 <path d="M3078 1804 c-21 -45 21 -87 66 -66 28 13 36 58 14 80 -22 22 -67 14 -80 -14z"/>
 <path d="M4192 1814 c-30 -21 -29 -59 3 -80 23 -15 27 -15 50 0 32 21 33 59 3 80 -12 9 -25 16 -28 16 -3 0 -16 -7 -28 -16z"/>
 <path d="M5176 1798 c-21 -29 -20 -41 2 -61 27 -24 59 -21 78 8 15 23 15 27 0 50 -21 32 -59 33 -80 3z"/>
 <path d="M5965 1800 c-27 -29 -10 -74 28 -78 37 -4 57 13 57 49 0 47 -53 65 -85 29z"/>
 <path d="M10771 1806 c-21 -26 -10 -69 22 -80 23 -8 31 -6 49 12 18 18 20 26 12 49 -7 21 -17 29 -40 31 -18 2 -36 -3 -43 -12z"/>
 <path d="M9516 1738 c-22 -31 -21 -33 23 -107 75 -127 76 -182 7 -301 -47 -79 -51 -98 -30 -121 43 -48 85 -13 150 125 54 113 53 174 -4 289 -22 45 -51 95 -62 110 -26 33 -63 35 -84 5z"/>
 <path d="M10968 1734 c-21 -45 21 -87 66 -66 28 13 36 58 14 80 -22 22 -67 14 -80 -14z"/>
 <path d="M7927 1722 c-24 -27 -21 -59 8 -78 23 -15 27 -15 50 0 32 21 33 59 3 80 -29 21 -41 20 -61 -2z"/>
 <path d="M7574 1709 c-17 -19 -17 -23 -3 -47 11 -20 23 -27 44 -27 21 0 33 7 44 27 14 24 14 28 -3 47 -11 12 -29 21 -41 21 -12 0 -30 -9 -41 -21z"/>
 <path d="M8274 1709 c-17 -19 -17 -23 -3 -47 11 -20 23 -27 44 -27 21 0 33 7 44 27 14 24 14 28 -3 47 -11 12 -29 21 -41 21 -12 0 -30 -9 -41 -21z"/>
 <path d="M3247 1702 c-34 -37 -15 -82 33 -82 49 0 68 51 32 83 -24 22 -45 21 -65 -1z"/>
 <path d="M4032 1704 c-30 -21 -29 -59 3 -80 23 -15 27 -15 50 0 32 21 33 59 3 80 -12 9 -25 16 -28 16 -3 0 -16 -7 -28 -16z"/>
 <path d="M3642 1674 c-28 -19 -28 -55 -1 -80 19 -17 23 -17 47 -3 36 20 41 61 10 83 -28 20 -28 20 -56 0z"/>
 <path d="M5443 1671 c-158 -54 -221 -162 -248 -423 -6 -59 -4 -69 14 -87 48 -48 85 -13 95 90 18 190 54 265 144 307 48 22 72 26 147 27 95 0 137 -11 191 -51 45 -33 73 -100 99 -238 16 -85 28 -124 41 -133 25 -18 41 -16 65 8 23 23 23 28 -11 197 -34 170 -113 271 -240 306 -78 22 -229 21 -297 -3z"/>
 <path d="M2795 1630 c-22 -11 -71 -45 -110 -76 -132 -106 -309 -213 -395 -239 -60 -18 -80 -72 -36 -100 21 -14 28 -14 72 1 112 38 265 129 412 247 89 71 118 81 131 45 19 -51 -36 -132 -142 -211 -38 -29 -48 -62 -25 -85 23 -23 65 -13 124 31 136 100 188 233 129 332 -23 40 -73 75 -107 75 -7 0 -31 -9 -53 -20z"/>
 <path d="M724 1586 c-15 -24 -15 -28 0 -51 20 -31 56 -33 82 -4 17 19 17 23 3 47 -21 38 -62 41 -85 8z"/>
 <path d="M3407 1592 c-23 -25 -21 -55 4 -78 19 -17 23 -17 47 -3 36 20 41 61 10 83 -29 21 -41 20 -61 -2z"/>
 <path d="M3872 1594 c-28 -19 -28 -55 -1 -80 19 -17 23 -17 47 -3 36 20 41 61 10 83 -28 20 -28 20 -56 0z"/>
 <path d="M402 1554 c-31 -22 -26 -63 10 -83 24 -14 28 -14 47 3 26 24 27 58 3 79 -23 21 -32 21 -60 1z"/>
 <path d="M1065 1550 c-27 -29 -10 -74 28 -78 53 -6 77 46 39 81 -25 22 -45 21 -67 -3z"/>
 <path d="M7536 1508 c-21 -29 -20 -41 2 -61 25 -23 55 -21 78 4 17 19 17 23 3 47 -20 36 -61 41 -83 10z"/>
 <path d="M8236 1508 c-21 -29 -20 -41 2 -61 25 -23 55 -21 78 4 17 19 17 23 3 47 -20 36 -61 41 -83 10z"/>
 <path d="M10307 1512 c-34 -37 -15 -82 33 -82 49 0 68 51 32 83 -24 22 -45 21 -65 -1z"/>
 <path d="M10517 1512 c-22 -24 -21 -45 1 -65 26 -23 58 -21 76 5 20 29 20 34 -4 58 -25 25 -52 26 -73 2z"/>
 <path d="M10738 1519 c-22 -12 -24 -62 -4 -78 46 -38 111 25 71 69 -20 22 -41 25 -67 9z"/>
 <path d="M10947 1512 c-34 -37 -15 -82 33 -82 49 0 68 51 32 83 -24 22 -45 21 -65 -1z"/>
 <path d="M3580 1459 c-25 -11 -114 -70 -198 -130 -84 -61 -181 -123 -215 -139 -84 -38 -257 -98 -337 -116 -96 -23 -125 -59 -80 -99 27 -25 90 -16 237 34 214 71 279 104 423 211 163 121 248 167 279 151 38 -21 25 -52 -46 -116 -36 -33 -101 -92 -144 -131 -82 -74 -259 -175 -489 -279 -58 -26 -111 -52 -117 -58 -19 -14 -16 -52 7 -72 18 -16 25 -17 63 -6 23 7 118 51 211 97 92 46 175 84 183 84 13 0 14 -9 10 -42 -7 -53 -33 -76 -165 -148 -53 -29 -133 -73 -177 -98 -168 -95 -158 -92 -274 -92 -58 0 -169 -7 -246 -15 -77 -8 -165 -15 -195 -15 -73 0 -104 -17 -108 -56 -5 -56 9 -59 186 -45 86 7 240 18 342 25 l186 12 84 50 c47 28 141 81 210 118 230 124 257 154 267 302 l6 85 64 59 c35 33 100 90 144 126 100 83 134 137 126 202 -4 38 -12 53 -46 84 -36 34 -46 38 -93 38 -32 0 -71 -9 -98 -21z"/>
 <path d="M724 1365 c-15 -23 -15 -27 0 -50 20 -30 56 -33 79 -7 22 24 21 45 -1 65 -27 24 -59 21 -78 -8z"/>
 <path d="M5557 1362 c-14 -15 -17 -40 -17 -130 0 -99 2 -114 20 -132 26 -26 42 -25 68 3 20 21 22 34 22 128 0 78 -4 110 -16 127 -18 27 -55 29 -77 4z"/>
 <path d="M7860 1373 c-52 -9 -97 -27 -157 -65 -62 -39 -64 -39 -113 -29 -105 22 -170 10 -228 -43 -74 -66 -69 -182 11 -268 30 -32 44 -34 75 -12 25 17 29 50 7 74 -8 8 -21 32 -29 51 -30 71 27 120 114 99 96 -23 131 -18 210 33 116 74 184 74 299 0 78 -49 117 -55 210 -33 56 13 92 3 116 -34 19 -29 14 -54 -23 -109 -21 -31 -23 -41 -14 -61 26 -59 88 -36 131 48 45 87 27 166 -51 229 -45 36 -111 45 -198 27 l-60 -13 -62 41 c-35 23 -90 48 -123 57 -60 15 -69 16 -115 8z"/>
 <path d="M468 1349 c-22 -12 -24 -62 -4 -78 46 -38 111 25 71 69 -20 22 -41 25 -67 9z"/>
 <path d="M1007 1342 c-34 -37 -15 -82 33 -82 49 0 68 51 32 83 -24 22 -45 21 -65 -1z"/>
 <path d="M10982 1284 c-31 -22 -26 -63 10 -83 24 -14 28 -14 47 3 26 24 27 58 3 79 -23 21 -32 21 -60 1z"/>
 <path d="M10777 1222 c-23 -25 -21 -55 4 -78 19 -17 23 -17 47 -3 36 20 41 61 10 83 -29 21 -41 20 -61 -2z"/>
 <path d="M202 1208 c-27 -27 0 -88 40 -88 36 0 62 62 36 88 -15 15 -61 15 -76 0z"/>
 <path d="M1244 1199 c-17 -19 -17 -23 -3 -47 11 -20 23 -27 44 -27 21 0 33 7 44 27 14 24 14 28 -3 47 -11 12 -29 21 -41 21 -12 0 -30 -9 -41 -21z"/>
 <path d="M10570 1160 c-11 -11 -20 -27 -20 -35 0 -19 35 -55 54 -55 19 0 57 49 49 64 -14 25 -37 46 -50 46 -7 0 -22 -9 -33 -20z"/>
 <path d="M724 1145 c-15 -23 -15 -27 0 -51 23 -33 64 -30 85 8 14 24 14 28 -3 47 -26 29 -62 27 -82 -4z"/>
 <path d="M527 1132 c-34 -37 -15 -82 33 -82 49 0 68 51 32 83 -24 22 -45 21 -65 -1z"/>
 <path d="M948 1139 c-21 -12 -24 -59 -6 -77 18 -18 53 -15 71 6 22 24 21 45 -1 65 -21 19 -39 21 -64 6z"/>
 <path d="M11110 1100 c-11 -11 -20 -27 -20 -35 0 -19 36 -55 55 -55 19 0 55 36 55 55 0 19 -36 55 -55 55 -8 0 -24 -9 -35 -20z"/>
 <path d="M4865 1036 c-30 -45 -5 -67 137 -119 167 -61 251 -86 312 -93 49 -5 61 -3 238 47 43 12 53 11 140 -16 157 -49 214 -41 496 62 142 52 167 74 137 119 -22 34 -35 32 -255 -45 -107 -37 -191 -61 -217 -61 -23 0 -79 12 -125 26 -104 33 -162 33 -266 0 -46 -14 -102 -26 -125 -26 -26 0 -110 24 -217 61 -220 77 -233 79 -255 45z"/>
 <path d="M337 1032 c-34 -37 -15 -82 33 -82 49 0 68 51 32 83 -24 22 -45 21 -65 -1z"/>
 <path d="M1115 1030 c-27 -29 -10 -74 28 -78 37 -4 57 13 57 49 0 47 -53 65 -85 29z"/>
 <path d="M10936 968 c-21 -29 -20 -41 2 -61 24 -22 55 -21 75 1 22 24 21 38 -3 62 -26 26 -55 25 -74 -2z"/>
 <path d="M701 969 c-163 -31 -260 -202 -205 -363 9 -26 13 -50 9 -54 -3 -4 -45 13 -93 38 -69 35 -104 61 -168 127 -85 87 -108 97 -139 63 -15 -17 -16 -23 -5 -51 16 -37 118 -143 180 -186 70 -48 162 -91 247 -115 67 -20 101 -23 238 -23 184 0 241 12 370 75 213 105 370 320 233 320 -21 0 -34 -10 -57 -44 -17 -24 -54 -65 -83 -91 -56 -49 -209 -131 -226 -121 -6 4 -3 25 9 56 76 201 -98 410 -310 369z m129 -121 c67 -35 85 -66 85 -148 0 -53 -5 -75 -21 -97 -25 -35 -98 -73 -139 -73 -45 0 -116 40 -142 79 -32 47 -32 135 0 182 26 39 97 79 142 79 17 0 51 -10 75 -22z"/>
 <path d="M8098 693 c-57 -66 -78 -165 -78 -375 0 -157 2 -177 18 -191 25 -23 45 -21 68 4 17 19 20 43 24 213 6 180 7 195 33 254 26 60 27 65 12 88 -18 28 -55 32 -77 7z"/>
 <path d="M5490 586 c-19 -7 -65 -28 -102 -45 -64 -31 -71 -32 -118 -22 -69 15 -128 -1 -175 -46 -41 -40 -55 -70 -55 -118 0 -49 16 -84 45 -97 40 -18 65 11 65 77 0 74 12 81 123 77 89 -3 92 -2 176 39 118 59 172 59 291 0 83 -42 87 -42 164 -38 118 8 145 -11 131 -94 -8 -48 6 -69 46 -69 19 0 34 8 43 22 38 59 31 130 -16 184 -46 52 -83 68 -153 65 -33 -2 -72 -3 -87 -3 -15 -1 -62 17 -104 38 -68 34 -86 39 -158 42 -51 1 -94 -3 -116 -12z"/>
 </g>

</svg>